# xmcd
#
# Track frame offsets:
#	150
#	13211
#	31465
#	40658
#	55913
#	71176
#	89040
#	94795
#	111590
#	128108
#	144550
#	159844
#	175418
#	189174
#
# Disc length: 2750 seconds
#
# Revision: 1
# Processed by: cddbd v1.5.2PL0 Copyright (c) Steve Scherf et al.
# Submitted via: audiograbber 1.83.01
#
DISCID=c50abc0e
DTITLE=The Lacs - 190 Proof
DYEAR=2013
DGENRE=Country
TTITLE0=190 Proof
TTITLE1=Drinks Up
TTITLE2=Po Dunk University (Skit)
TTITLE3=Shake It (feat. Big and Rich)
TTITLE4=Old River Road
TTITLE5=Wylin (feat. Bubba Sparxxx)
TTITLE6=Great Moments In Redneck History #2 (skit)
TTITLE7=Country Boy Fresh
TTITLE8=Island Time
TTITLE9=Just Another Thing (feat. Crucifix)
TTITLE10=4 Wheel Drive
TTITLE11=Drink Too Much
TTITLE12=Ease Along
TTITLE13=What I Need
EXTD=
EXTT0=
EXTT1=
EXTT2=
EXTT3=
EXTT4=
EXTT5=
EXTT6=
EXTT7=
EXTT8=
EXTT9=
EXTT10=
EXTT11=
EXTT12=
EXTT13=
PLAYORDER=
